<svg id="Capa_1" enable-background="new 0 0 512 512" height="512" viewBox="0 0 512 512" width="512" xmlns="http://www.w3.org/2000/svg"><g><g><path d="m380.497 53.284h-340.562c-17.914 0-32.435 14.521-32.435 32.435v340.563c0 17.913 14.521 32.435 32.435 32.435h340.563c17.914 0 32.435-14.522 32.435-32.435v-340.563c-.001-17.914-14.522-32.435-32.436-32.435zm-16.217 356.78h-308.128v-308.128h319.82z" fill="#eceaec"/><path d="m388.606 385.738v-291.911c0-8.957-7.261-16.217-16.217-16.217h-291.911c-13.435 0-24.326 10.891-24.326 24.326h308.128v308.128c13.435 0 24.326-10.891 24.326-24.326z" fill="#dbd8db"/><path d="m499.75 91.45-11.464-11.464c-6.333-6.333-16.601-6.333-22.934 0l-222.702 222.698-113.234-113.231c-6.333-6.333-16.601-6.333-22.934 0l-11.464 11.464c-6.333 6.333-6.333 16.601 0 22.934l118.964 118.968c15.833 15.833 41.504 15.833 57.338 0l228.43-228.434c6.333-6.333 6.333-16.601 0-22.935z" fill="#b8eb7c"/><path d="m494.018 85.719-239.901 239.901c-6.002 6.002-16.93 6.002-22.932 0l-130.436-130.435-5.732 5.732c-6.333 6.333-6.334 16.601 0 22.934l118.964 118.968c15.833 15.833 41.505 15.833 57.339 0l228.43-228.434c6.333-6.333 6.333-16.601 0-22.935z" fill="#98db7c"/><path d="m39.935 434.39c-4.474 0-8.109-3.639-8.109-8.109v-371.85c-13.965 3.617-24.326 16.191-24.326 31.288v340.563c0 17.913 14.521 32.435 32.435 32.435h340.563c15.097 0 27.672-10.361 31.288-24.326h-371.851z" fill="#dbd8db"/></g><g><path d="m412.932 240.391c-4.142 0-7.5 3.358-7.5 7.5v178.39c0 13.749-11.186 24.935-24.935 24.935h-340.562c-13.749 0-24.935-11.186-24.935-24.935v-340.562c0-13.749 11.186-24.935 24.935-24.935h340.562c13.749 0 24.935 11.186 24.935 24.935 0 4.142 3.358 7.5 7.5 7.5s7.5-3.358 7.5-7.5c0-22.02-17.915-39.935-39.935-39.935h-340.562c-22.02 0-39.935 17.915-39.935 39.935v340.562c0 22.02 17.915 39.935 39.935 39.935h340.562c22.02 0 39.935-17.915 39.935-39.935v-178.39c0-4.142-3.358-7.5-7.5-7.5z"/><path d="m505.053 86.147-11.464-11.464c-9.248-9.248-24.293-9.248-33.541 0l-168.063 168.06c-2.929 2.929-2.929 7.677 0 10.606s7.678 2.928 10.606 0l168.064-168.059c3.398-3.399 8.93-3.399 12.328 0l11.464 11.464c1.646 1.646 2.553 3.835 2.553 6.164s-.907 4.517-2.553 6.164l-228.431 228.434c-6.241 6.241-14.54 9.678-23.366 9.678s-17.124-3.437-23.365-9.678l-118.965-118.967c-3.398-3.399-3.398-8.929 0-12.328l11.464-11.464c3.398-3.398 8.929-3.399 12.328 0l113.234 113.231c2.929 2.929 7.678 2.929 10.606 0l30.862-30.862c2.929-2.929 2.929-7.677 0-10.606s-7.678-2.928-10.606 0l-25.559 25.559-107.93-107.929c-9.248-9.247-24.294-9.247-33.541 0l-11.464 11.464c-9.248 9.247-9.248 24.294 0 33.541l118.965 118.968c9.074 9.074 21.139 14.072 33.972 14.072 12.832 0 24.898-4.998 33.972-14.072l228.431-228.434c4.48-4.48 6.947-10.436 6.947-16.771-.001-6.335-2.468-12.291-6.948-16.771z"/><path d="m364.28 141.87c4.142 0 7.5-3.358 7.5-7.5v-32.434c0-4.142-3.358-7.5-7.5-7.5h-308.128c-4.142 0-7.5 3.358-7.5 7.5v308.128c0 4.142 3.358 7.5 7.5 7.5h308.128c4.142 0 7.5-3.358 7.5-7.5v-113.521c0-4.142-3.358-7.5-7.5-7.5s-7.5 3.358-7.5 7.5v106.021h-293.128v-293.128h293.128v24.934c0 4.142 3.358 7.5 7.5 7.5z"/></g></g></svg>