<svg id="Capa_1" enable-background="new 0 0 513.433 513.433" height="512" viewBox="0 0 513.433 513.433" width="512" xmlns="http://www.w3.org/2000/svg"><g><path d="m126.939 390.224h-49.059c-4.143 0-7.5 3.357-7.5 7.5s3.357 7.5 7.5 7.5h49.06c4.143 0 7.5-3.357 7.5-7.5s-3.358-7.5-7.501-7.5z"/><path d="m126.939 365.026h-49.059c-4.143 0-7.5 3.357-7.5 7.5s3.357 7.5 7.5 7.5h49.06c4.143 0 7.5-3.357 7.5-7.5s-3.358-7.5-7.501-7.5z"/><path d="m126.939 339.827h-49.059c-4.143 0-7.5 3.357-7.5 7.5s3.357 7.5 7.5 7.5h49.06c4.143 0 7.5-3.357 7.5-7.5s-3.358-7.5-7.501-7.5z"/><path d="m337.504 390.224h-49.06c-4.143 0-7.5 3.357-7.5 7.5s3.357 7.5 7.5 7.5h49.06c4.143 0 7.5-3.357 7.5-7.5s-3.358-7.5-7.5-7.5z"/><path d="m337.504 365.026h-49.06c-4.143 0-7.5 3.357-7.5 7.5s3.357 7.5 7.5 7.5h49.06c4.143 0 7.5-3.357 7.5-7.5s-3.358-7.5-7.5-7.5z"/><path d="m337.504 339.827h-49.06c-4.143 0-7.5 3.357-7.5 7.5s3.357 7.5 7.5 7.5h49.06c4.143 0 7.5-3.357 7.5-7.5s-3.358-7.5-7.5-7.5z"/><path d="m232.222 179.66h-49.06c-4.143 0-7.5 3.358-7.5 7.5s3.357 7.5 7.5 7.5h49.06c4.143 0 7.5-3.357 7.5-7.5s-3.358-7.5-7.5-7.5z"/><path d="m232.222 154.461h-49.06c-4.143 0-7.5 3.358-7.5 7.5s3.357 7.5 7.5 7.5h49.06c4.143 0 7.5-3.358 7.5-7.5s-3.358-7.5-7.5-7.5z"/><path d="m232.222 129.262h-49.06c-4.143 0-7.5 3.358-7.5 7.5s3.357 7.5 7.5 7.5h49.06c4.143 0 7.5-3.358 7.5-7.5s-3.358-7.5-7.5-7.5z"/><path d="m498.278 421.845h-24.226c.46-1.695.728-3.469.728-5.308v-184.95c0-11.196-9.109-20.306-20.307-20.306-9.658 0-75.823-.001-85.702-.001.46-1.695.728-3.468.728-5.307v-74.975c0-4.142-3.357-7.5-7.5-7.5s-7.5 3.358-7.5 7.5v74.975c0 2.926-2.381 5.307-5.307 5.307-3.116 0-181.834 0-184.951 0-2.926 0-5.307-2.381-5.307-5.307v-184.95c0-2.926 2.381-5.306 5.307-5.306h50.63v72.317c0 10.78 11.992 17.136 20.904 11.303l20.941-13.704 20.94 13.704c8.971 5.869 20.904-.579 20.904-11.303v-72.317h50.631c2.926 0 5.307 2.38 5.307 5.306v74.976c0 4.142 3.357 7.5 7.5 7.5s7.5-3.358 7.5-7.5v-74.976c0-11.197-9.109-20.306-20.307-20.306-7.054 0-177.889 0-184.951 0-11.197 0-20.307 9.109-20.307 20.306v184.951c0 1.838.267 3.612.728 5.307-2.591 0-33.903.001-85.703.001-11.197 0-20.307 9.109-20.307 20.306v184.95c0 1.839.268 3.612.728 5.308h-24.225c-8.356-.001-15.154 6.797-15.154 15.154v21.14c0 8.356 6.798 15.154 15.154 15.154h12.428v23.709c0 8.664 7.049 15.713 15.713 15.713h22.996c8.664 0 15.713-7.049 15.713-15.713v-23.709h147.502v23.709c0 8.664 7.049 15.713 15.713 15.713h22.996c8.663 0 15.712-7.049 15.712-15.713v-23.709h56.251c4.143 0 7.5-3.357 7.5-7.5s-3.357-7.5-7.5-7.5c-14.233 0-312.112 0-325.023 0-.085 0-.154-.069-.154-.154v-21.14c0-.085.069-.154.154-.154h483.124c.085 0 .154.069.154.154v21.14c0 .085-.069.154-.154.154-4.546 0-117.029 0-123.101 0-4.143 0-7.5 3.357-7.5 7.5s3.357 7.5 7.5 7.5h56.251v23.709c0 8.664 7.049 15.713 15.713 15.713h22.996c8.664 0 15.713-7.049 15.713-15.713v-23.709h12.428c8.356 0 15.154-6.798 15.154-15.154v-21.14c0-8.357-6.798-15.155-15.155-15.155zm-268.407-406.128h53.69v69.558l-19.448-12.727c-4.494-2.94-10.303-2.94-14.793 0l-19.449 12.727zm14.635 457.576h24.421v23.709c0 .394-.319.713-.712.713h-22.996c-.394 0-.713-.319-.713-.713zm-201.924 0h24.422v23.709c0 .394-.319.713-.713.713h-22.996c-.394 0-.713-.319-.713-.713zm292.571-247.011h53.69v69.558l-19.448-12.727c-4.493-2.94-10.299-2.942-14.793 0l-19.449 12.727zm-210.563 0h53.689v69.558l-19.449-12.728c-4.493-2.939-10.299-2.939-14.792.001l-19.448 12.727zm124.627 190.256c0 2.877-2.43 5.308-5.307 5.308h-184.951c-2.877 0-5.307-2.431-5.307-5.308v-184.95c0-2.926 2.381-5.306 5.307-5.306h50.631v72.317c0 10.719 11.929 17.174 20.905 11.303l20.939-13.703 20.941 13.704c8.953 5.86 20.903-.554 20.903-11.304v-72.317h50.631c2.926 0 5.307 2.38 5.307 5.306v184.95zm210.563 0c0 2.927-2.381 5.308-5.307 5.308h-184.95c-2.926 0-5.307-2.381-5.307-5.308v-184.95c0-2.926 2.381-5.306 5.307-5.306h50.63v72.317c0 10.722 11.932 17.173 20.904 11.303l20.94-13.703 20.941 13.703c8.959 5.863 20.904-.558 20.904-11.303v-72.317h50.63c2.926 0 5.307 2.38 5.307 5.306v184.95zm11.071 80.464c0 .394-.319.713-.713.713h-22.996c-.394 0-.713-.319-.713-.713v-23.709h24.422z"/></g></svg>