<svg id="Capa_1" enable-background="new 0 0 512.498 512.498" height="512" viewBox="0 0 512.498 512.498" width="512" xmlns="http://www.w3.org/2000/svg"><g><g><path d="m256.249 120c-33.08 0-60 26.92-60 60s26.92 60 60 60 60-26.92 60-60-26.92-60-60-60zm0 0c-33.08 0-60 26.92-60 60s26.92 60 60 60 60-26.92 60-60-26.92-60-60-60zm0-120c-99.25 0-180 80.75-180 180 0 124.02 161.61 318.88 168.49 327.12 6 7.18 17.03 7.16 23.02 0 6.88-8.24 168.49-203.1 168.49-327.12 0-99.25-80.75-180-180-180zm105 195h-16.26c-6.33 37.63-36.11 67.41-73.74 73.74v16.26c0 8.28-6.72 15-15 15s-15-6.72-15-15v-16.26c-37.63-6.33-67.41-36.11-73.74-73.74h-16.26c-8.28 0-15-6.72-15-15s6.72-15 15-15h16.26c6.33-37.63 36.11-67.41 73.74-73.74v-16.26c0-8.28 6.72-15 15-15s15 6.72 15 15v16.26c37.63 6.33 67.41 36.11 73.74 73.74h16.26c8.28 0 15 6.72 15 15s-6.72 15-15 15zm-105-75c-33.08 0-60 26.92-60 60s26.92 60 60 60 60-26.92 60-60-26.92-60-60-60zm0 0c-33.08 0-60 26.92-60 60s26.92 60 60 60 60-26.92 60-60-26.92-60-60-60zm0 0c-33.08 0-60 26.92-60 60s26.92 60 60 60 60-26.92 60-60-26.92-60-60-60z"/></g></g></svg>