<svg id="Capa_1" enable-background="new 0 0 512.002 512.002" height="512" viewBox="0 0 512.002 512.002" width="512" xmlns="http://www.w3.org/2000/svg"><path d="m510.942 75.271c-2.474-4.938-8.482-6.937-13.419-4.465l-10.626 5.32c.939-3.132 1.511-5.347 1.558-5.53 4.99-19.151 1.325-35.576-10.6-47.501-12.309-12.309-30.437-14.485-53.882-6.468-18.117 6.196-39.544 18.364-65.402 37.123-23.834-13.758-49.997-23.397-77.338-28.252-13.8-2.448-27.958-3.689-42.083-3.689-10.217 0-20.561.663-30.746 1.971-5.478.704-9.349 5.714-8.645 11.192.704 5.479 5.717 9.354 11.192 8.645 9.344-1.2 18.831-1.808 28.199-1.808 10.155 0 20.323.709 30.336 2.092v4.326c0 7.379 2.992 14.592 8.195 19.776l20.598 20.597c6.584 6.584-2.407 12.886-5.234 18.511-28.56 25.306-61.043 56.221-98.726 93.904-14.53 14.529-28.045 28.28-40.631 41.338v-6.954c0-7.317-2.848-14.184-8.005-19.32l-52.298-52.311c-1.376-1.371-2.134-3.205-2.134-5.165v-59.32c12.429-11.376 26.141-21.328 40.849-29.579 4.817-2.702 6.531-8.797 3.829-13.614s-8.798-6.531-13.614-3.829c-69.889 39.208-122.131 117.673-122.131 199.312-.122 3.198-.184 6.356-.184 9.385 0 44.084 11.853 86.345 34.043 123.151-11.527 17.669-19.485 33.038-24.109 46.557-8.018 23.444-5.841 41.573 6.468 53.882 20.009 20.009 48.794 12.719 70.773.51 4.828-2.682 6.567-8.77 3.885-13.598s-8.769-6.569-13.598-3.886c-13.697 7.61-33.838 15.911-46.918 2.832-10.62-10.62-5.006-34.371 15.671-68.071 7.17 9.741 15.119 19.014 23.832 27.727 45.17 45.17 105.226 70.046 169.104 70.046 96.816 0 186.438-60.719 222.265-150.693 11.182-28.082 16.897-58.235 16.897-88.457 0-77.217-38.463-151.178-101.582-195.6 43.756-30.635 74.472-40.633 86.982-28.12 6.721 6.72 8.533 16.247 5.379 28.352-.017.069-1.322 5.115-3.188 10.501l-9.883-14.558c-3.103-4.569-9.319-5.759-13.891-2.657-4.569 3.102-5.759 9.321-2.656 13.89l20.146 29.674c2.766 4.087 8.34 5.53 12.75 3.325l34.107-17.076c4.938-2.472 6.937-8.48 4.465-13.418zm-142.758 8.554c14.122 10.292 27.054 22.288 38.332 35.638 33.401 39.463 51.797 89.714 51.797 141.495 0 10.84-.805 21.678-2.392 32.4-1.457-.319-2.827-1.051-3.938-2.166l-23.933-23.932c-5.285-5.284-12.308-8.194-19.774-8.194h-23.73c-4.396 0-7.971-3.57-7.971-7.958v-24.727c0-7.368-2.982-14.577-8.181-19.775l-55.985-55.998c-1.477-1.472-2.324-3.52-2.324-5.62v-25.346c0-.322.027-.641.066-.959 18.007-15.83 34.384-29.332 49.456-40.793 2.903 1.913 5.767 3.886 8.577 5.935zm-55.762-9.369-20.611-20.61c-1.477-1.472-2.324-3.52-2.324-5.62-.046-.175 0-.415 0-.598 17.922 4.219 35.279 10.731 51.572 19.306-7.081 5.517-14.431 11.452-22.084 17.838-1.374-3.837-3.589-7.352-6.553-10.316zm-151.394 218.842h52.801c4.04 0 7.327 3.287 7.327 7.327v68.12c0 1.926-.783 3.814-2.148 5.179l-79.839 79.839c-1.46 1.462-3.981.404-3.981-1.655v-78.375c0-7.306-2.839-14.168-7.995-19.322l-25.6-25.59c11.706-13.682 24.832-28.341 39.533-44.147 4.99 5.303 12.063 8.624 19.902 8.624zm-29.473-63.066c1.376 1.371 2.134 3.205 2.134 5.165v27.958c-14.196 15.103-27.04 29.219-38.635 42.469v-36.544c0-15.068-12.264-27.327-27.339-27.327h-46.897c3.793-44.665 21.575-87.559 50.434-121.845v38.493c0 7.317 2.848 14.184 8.005 19.32zm-111.543 31.722h47.702c4.047 0 7.339 3.287 7.339 7.327v49.959c0 2.919.461 5.765 1.334 8.462-10.26 12.363-19.35 23.942-27.368 34.859-.814 1.108-1.596 2.195-2.386 3.286-17.23-31.52-26.458-66.995-26.621-103.893zm37.992 122.424c2.268-3.257 4.638-6.578 7.135-9.979 6.982-9.507 14.814-19.546 23.554-30.193l24.36 24.349c1.376 1.376 2.134 3.214 2.134 5.177v67.999c-10.984-7.566-21.365-16.178-30.999-25.813-9.792-9.791-18.529-20.355-26.184-31.54zm98.98 79.855 76.167-76.167c5.087-5.088 8.005-12.13 8.005-19.321v-68.12c0-15.068-12.259-27.327-27.327-27.327h-52.801c-2.551 0-4.801-1.31-6.116-3.292 16.092-16.963 33.879-35.18 53.55-54.851 30.447-30.448 57.423-56.397 81.623-78.484v8.317c0 7.379 2.992 14.592 8.194 19.775l55.972 55.984c1.478 1.477 2.324 3.53 2.324 5.634v24.727c0 15.416 12.548 27.958 27.971 27.958h23.73c2.095 0 4.147.852 5.633 2.337l23.924 23.923c4.002 4.012 8.971 6.613 14.249 7.679-2.752 11.299-6.413 22.369-10.938 33.095-1.681-.249-3.377-.388-5.071-.388h-47.725c-9.315 0-18.07 3.624-24.65 10.203l-13.865 13.866c-13.446 13.444-13.405 35.814-.001 49.288l18.74 18.741c-37.361 27.342-82.89 42.297-129.421 42.297-28.624.001-56.404-5.464-82.167-15.874zm272.249-94.136c-9.386 16.261-20.861 31.271-34.003 44.674-3.538 3.608-7.217 7.065-11.001 10.414l-20.237-20.238c-5.697-5.723-5.754-15.287-.019-21.022l13.865-13.866c2.763-2.761 6.593-4.345 10.509-4.345h43.338c-.803 1.467-1.615 2.932-2.452 4.383z"/><path d="m158.8 46.885c2.095 5.029 8.018 7.498 13.06 5.41 5.031-2.083 7.492-8.032 5.41-13.06-2.085-5.036-8.027-7.488-13.06-5.41-5.03 2.077-7.505 8.031-5.41 13.06z"/></svg>